<svg width="2096" height="1440" viewBox="0 0 2096 1440" fill="none" xmlns="http://www.w3.org/2000/svg">
<g clip-path="url(#clip0_9_691)">
<rect width="2096" height="1440" fill="white"/>
<rect width="2096" height="1440" fill="url(#paint0_linear_9_691)"/>
<rect width="2096" height="1440" fill="url(#paint1_linear_9_691)"/>
<rect width="2096" height="1440" fill="url(#paint2_linear_9_691)"/>
<rect x="1781.94" y="883.964" width="13.4857" height="142.036" fill="#353131" fill-opacity="0.68"/>
<ellipse cx="1805.54" cy="890.727" rx="16.8571" ry="16.9091" fill="#072F03" fill-opacity="0.58"/>
<ellipse cx="1805.54" cy="890.727" rx="16.8571" ry="16.9091" fill="#072F03" fill-opacity="0.58"/>
<ellipse cx="1763.4" cy="916.091" rx="35.4" ry="35.5091" fill="#042712" fill-opacity="0.63"/>
<ellipse cx="1763.4" cy="916.091" rx="35.4" ry="35.5091" fill="#042712" fill-opacity="0.63"/>
<ellipse cx="1780.26" cy="868.745" rx="28.6571" ry="28.7455" fill="#0D2C19" fill-opacity="0.59"/>
<ellipse cx="1780.26" cy="868.745" rx="28.6571" ry="28.7455" fill="#0D2C19" fill-opacity="0.59"/>
<ellipse cx="1780.26" cy="868.745" rx="28.6571" ry="28.7455" fill="#0D2C19" fill-opacity="0.59"/>
<ellipse cx="1817.34" cy="919.473" rx="28.6571" ry="28.7455" fill="#06291B" fill-opacity="0.47"/>
<rect x="1941.94" y="883.964" width="13.4857" height="142.036" fill="#353131" fill-opacity="0.68"/>
<ellipse cx="1965.54" cy="890.727" rx="16.8571" ry="16.9091" fill="#072F03" fill-opacity="0.58"/>
<ellipse cx="1965.54" cy="890.727" rx="16.8571" ry="16.9091" fill="#072F03" fill-opacity="0.58"/>
<ellipse cx="1923.4" cy="916.091" rx="35.4" ry="35.5091" fill="#042712" fill-opacity="0.63"/>
<ellipse cx="1923.4" cy="916.091" rx="35.4" ry="35.5091" fill="#042712" fill-opacity="0.63"/>
<ellipse cx="1940.26" cy="868.745" rx="28.6571" ry="28.7455" fill="#0D2C19" fill-opacity="0.59"/>
<ellipse cx="1940.26" cy="868.745" rx="28.6571" ry="28.7455" fill="#0D2C19" fill-opacity="0.59"/>
<ellipse cx="1940.26" cy="868.745" rx="28.6571" ry="28.7455" fill="#0D2C19" fill-opacity="0.59"/>
<ellipse cx="1977.34" cy="919.473" rx="28.6571" ry="28.7455" fill="#06291B" fill-opacity="0.47"/>
<path d="M0 1230.27C870.65 1057.16 1160.87 953.725 2096 1014.54V1440H0V1230.27Z" fill="url(#paint3_linear_9_691)"/>
<path d="M2096 1239.66C1831.48 1202.09 1049.66 1054.86 4.3869e-05 1034V1571H2096V1239.66Z" fill="url(#paint4_linear_9_691)"/>
<circle cx="492" cy="280" r="1" fill="#FDFDFD"/>
<circle cx="690.5" cy="182.5" r="4.5" fill="#9F8C8C"/>
<circle cx="526" cy="33" r="1" fill="white"/>
<circle cx="956" cy="282" r="1" fill="#0B0808"/>
<circle cx="741" cy="243" r="1" fill="#F7E5E5"/>
<circle cx="628" cy="150" r="1" fill="white"/>
<circle cx="946" cy="134" r="1" fill="#0B0808"/>
<circle cx="861" cy="193" r="1" fill="white"/>
<circle cx="672" cy="89" r="1" fill="white"/>
<circle cx="1826.5" cy="194.5" r="99.5076" fill="#4E4646" fill-opacity="0.1"/>
<ellipse cx="1850.07" cy="125.543" rx="6.11012" ry="6.11012" fill="#4E4646" fill-opacity="0.1"/>
<ellipse cx="1793.33" cy="203.229" rx="6.98299" ry="6.98299" fill="#4E4646" fill-opacity="0.1"/>
<ellipse cx="1812.53" cy="171.805" rx="3.4915" ry="3.4915" fill="#4E4646" fill-opacity="0.1"/>
<ellipse cx="1749.69" cy="208.466" rx="3.4915" ry="3.4915" fill="#4E4646" fill-opacity="0.1"/>
<ellipse cx="1877.13" cy="142.128" rx="8.72874" ry="8.72874" fill="#4E4646" fill-opacity="0.1"/>
<ellipse cx="1903.31" cy="182.28" rx="5.23724" ry="5.23725" fill="#4E4646" fill-opacity="0.1"/>
<ellipse cx="1895.46" cy="235.525" rx="6.11012" ry="6.11012" fill="#4E4646" fill-opacity="0.1"/>
<circle cx="1794.2" cy="141.255" r="7.85587" fill="#4E4646" fill-opacity="0.1"/>
<circle cx="1816.9" cy="261.711" r="4.36437" fill="#4E4646" fill-opacity="0.1"/>
<ellipse cx="1772.38" cy="241.635" rx="8.72874" ry="8.72874" fill="#4E4646" fill-opacity="0.1"/>
<ellipse cx="1864.91" cy="206.72" rx="5.23724" ry="5.23725" fill="#4E4646" fill-opacity="0.1"/>
<ellipse cx="1854.43" cy="241.635" rx="8.72875" ry="8.72874" fill="#4E4646" fill-opacity="0.1"/>
<ellipse cx="1867.52" cy="167.441" rx="2.61863" ry="2.61862" fill="#4E4646" fill-opacity="0.1"/>
<circle cx="1767.14" cy="173.551" r="3.4915" fill="#4E4646" fill-opacity="0.1"/>
<path fill-rule="evenodd" clip-rule="evenodd" d="M1766.01 273.514C1809.65 306.92 1872.11 298.624 1905.51 254.986C1938.92 211.348 1930.62 148.891 1886.99 115.486C1901.33 221.658 1880.14 260.086 1766.01 273.514Z" fill="#4E4747" fill-opacity="0.48"/>
<path d="M143.901 515.878C146.4 516.65 150.563 513.562 149.453 515.878C148.343 518.194 151.119 521.283 149.453 521.025C147.788 520.768 142.791 523.342 143.901 521.025C145.012 518.709 141.403 515.106 143.901 515.878Z" fill="#CE7D7D"/>
</g>
<defs>
<linearGradient id="paint0_linear_9_691" x1="0" y1="0" x2="260.17" y2="1570.51" gradientUnits="userSpaceOnUse">
<stop stop-color="#E73737"/>
<stop offset="1" stop-color="#F2B5B5" stop-opacity="0.64"/>
</linearGradient>
<linearGradient id="paint1_linear_9_691" x1="2096" y1="-1.52323e-06" x2="1458.77" y2="1923.32" gradientUnits="userSpaceOnUse">
<stop stop-color="#8418EF"/>
<stop offset="1" stop-color="#B298CD" stop-opacity="0.43"/>
</linearGradient>
<linearGradient id="paint2_linear_9_691" x1="2096" y1="469.5" x2="26.2449" y2="480.483" gradientUnits="userSpaceOnUse">
<stop stop-color="#8C13EB" stop-opacity="0.43"/>
<stop offset="1" stop-color="#DED84D" stop-opacity="0.43"/>
</linearGradient>
<linearGradient id="paint3_linear_9_691" x1="1048" y1="1037.44" x2="1048" y2="1440" gradientUnits="userSpaceOnUse">
<stop stop-color="#2B39BF" stop-opacity="0.95"/>
<stop offset="1" stop-color="#223D2C"/>
</linearGradient>
<linearGradient id="paint4_linear_9_691" x1="1048" y1="935.019" x2="1048" y2="1571" gradientUnits="userSpaceOnUse">
<stop stop-color="#3C42E1" stop-opacity="0.95"/>
<stop offset="1" stop-color="#223D2C"/>
</linearGradient>
<clipPath id="clip0_9_691">
<rect width="2096" height="1440" fill="white"/>
</clipPath>
</defs>
</svg>
